:version 1.10
:name ASF
:units
  mass 1
  length 1
  angle deg
:documentation
  ASF file generated by Kaydara
:root
  axis xyz
  order  tx ty tz rx ry rz
  position 0 0 0
  orientation 0 0 0
:bonedata
  begin
    id 1
    name lfemurDummy
    direction 0.61522 -0.761478 0.204097
    length 5.68318
    axis 0 -0 0 xyz
  end
  begin
    id 2
    name lfemur
    direction 0.34202 -0.939693 -5.84747e-008
    length 16.9147
    axis 0 -0 20 xyz
    dof rx ry rz
    limits( -inf , inf )
( -inf , inf )
( -inf , inf )

  end
  begin
    id 3
    name ltibia
    direction 0.34202 -0.939693 1.20839e-009
    length 18.0532
    axis 0 -0 20 xyz
    dof rz ry rx
    limits( -inf , inf )
( -inf , inf )
( -inf , inf )

  end
  begin
    id 4
    name lfoot
    direction 0.0841971 -0.23133 0.969225
    length 5.23822
    axis -90 7.62852e-016 20 xyz
    dof ry rx rz
    limits( -inf , inf )
( -inf , inf )
( -inf , inf )

  end
  begin
    id 5
    name ltoes
    direction 0 0 0
    length 0
    axis 0 0 0 xyz
    dof rz ry rx
    limits( -inf , inf )
( -inf , inf )
( -inf , inf )

  end
  begin
    id 6
    name rfemurDummy
    direction -0.625247 -0.75382 0.202044
    length 5.74091
    axis 0 -0 0 xyz
  end
  begin
    id 7
    name rfemur
    direction -0.34202 -0.939693 -1.47013e-008
    length 16.4922
    axis 0 -0 -20 xyz
    dof rx ry rz
    limits( -inf , inf )
( -inf , inf )
( -inf , inf )

  end
  begin
    id 8
    name rtibia
    direction -0.34202 -0.939693 -7.74345e-010
    length 18.2421
    axis 0 -0 -20 xyz
    dof rz ry rx
    limits( -inf , inf )
( -inf , inf )
( -inf , inf )

  end
  begin
    id 9
    name rfoot
    direction -0.124331 -0.341598 0.931586
    length 5.45787
    axis -90 -7.62852e-016 -20 xyz
    dof ry rx rz
    limits( -inf , inf )
( -inf , inf )
( -inf , inf )

  end
  begin
    id 10
    name rtoes
    direction 0 0 0
    length 0
    axis 0 0 0 xyz
    dof rz ry rx
    limits( -inf , inf )
( -inf , inf )
( -inf , inf )

  end
  begin
    id 11
    name lowerbackDummy
    direction 0 0 0
    length 0
    axis 0 -0 0 xyz
  end
  begin
    id 12
    name lowerback
    direction -0.0218484 0.994884 -0.0986304
    length 4.45607
    axis 0 -0 0 xyz
    dof rx ry rz
    limits( -inf , inf )
( -inf , inf )
( -inf , inf )

  end
  begin
    id 13
    name upperback
    direction -0.00973057 0.999717 -0.0217111
    length 4.47449
    axis 0 -0 0 xyz
    dof rx ry rz
    limits( -inf , inf )
( -inf , inf )
( -inf , inf )

  end
  begin
    id 14
    name thorax
    direction -0.000928171 0.999699 0.0245198
    length 4.50973
    axis 0 -0 0 xyz
    dof rx ry rz
    limits( -inf , inf )
( -inf , inf )
( -inf , inf )

  end
  begin
    id 15
    name rclavicle
    direction -0.9009 0.425937 -0.0834055
    length 7.28587
    axis 0 -0 0 xyz
    dof rx ry rz
    limits( -inf , inf )
( -inf , inf )
( -inf , inf )

  end
  begin
    id 16
    name rhumerus
    direction -1 -2.23604e-007 -1.42637e-007
    length 13.5704
    axis 180 30 90 xyz
    dof rx ry rz
    limits( -inf , inf )
( -inf , inf )
( -inf , inf )

  end
  begin
    id 17
    name rradius
    direction -1 5.68281e-008 -4.4952e-007
    length 8.06782
    axis 180 30 90 xyz
    dof rz ry rx
    limits( -inf , inf )
( -inf , inf )
( -inf , inf )

  end
  begin
    id 18
    name rwrist
    direction -1 1.51393e-007 1.38143e-007
    length 4.03391
    axis -90 -90 0 xyz
    dof rz rx ry
    limits( -inf , inf )
( -inf , inf )
( -inf , inf )

  end
  begin
    id 19
    name rthumb
    direction 0 0 0
    length 0
    axis 0 0 0 xyz
    dof ry rx rz
    limits( -inf , inf )
( -inf , inf )
( -inf , inf )

  end
  begin
    id 20
    name rhand
    direction -1 -3.34077e-007 -5.59631e-007
    length 1.29744
    axis -90 -90 0 xyz
    dof ry rx rz
    limits( -inf , inf )
( -inf , inf )
( -inf , inf )

  end
  begin
    id 21
    name rfingers
    direction 0 0 0
    length 0
    axis 0 0 0 xyz
    dof rz ry rx
    limits( -inf , inf )
( -inf , inf )
( -inf , inf )

  end
  begin
    id 22
    name lclavicle
    direction 0.940017 0.332249 -0.0773232
    length 8.29589
    axis 0 -0 0 xyz
    dof rx ry rz
    limits( -inf , inf )
( -inf , inf )
( -inf , inf )

  end
  begin
    id 23
    name lhumerus
    direction 1 7.41158e-008 -1.44768e-008
    length 12.0042
    axis 180 -30 -90 xyz
    dof rx ry rz
    limits( -inf , inf )
( -inf , inf )
( -inf , inf )

  end
  begin
    id 24
    name lradius
    direction 1 -1.32972e-007 3.10821e-007
    length 8.1902
    axis 180 -30 -90 xyz
    dof rz ry rx
    limits( -inf , inf )
( -inf , inf )
( -inf , inf )

  end
  begin
    id 25
    name lwrist
    direction 1 3.08957e-007 4.01394e-007
    length 4.09509
    axis -90 90 0 xyz
    dof rz rx ry
    limits( -inf , inf )
( -inf , inf )
( -inf , inf )

  end
  begin
    id 26
    name lthumb
    direction 0 0 0
    length 0
    axis 0 0 0 xyz
    dof ry rx rz
    limits( -inf , inf )
( -inf , inf )
( -inf , inf )

  end
  begin
    id 27
    name lhand
    direction 1 -1.64125e-007 -6.99514e-007
    length 1.37229
    axis -90 90 0 xyz
    dof ry rx rz
    limits( -inf , inf )
( -inf , inf )
( -inf , inf )

  end
  begin
    id 28
    name lfingers
    direction 0 0 0
    length 0
    axis 0 0 0 xyz
    dof rz ry rx
    limits( -inf , inf )
( -inf , inf )
( -inf , inf )

  end
  begin
    id 29
    name lowerneck
    direction -0.030798 0.998024 0.0547665
    length 3.93918
    axis 0 -0 0 xyz
    dof rx ry rz
    limits( -inf , inf )
( -inf , inf )
( -inf , inf )

  end
  begin
    id 30
    name upperneck
    direction 0.0531588 0.996611 -0.0627736
    length 3.95491
    axis 0 -0 0 xyz
    dof rx ry rz
    limits( -inf , inf )
( -inf , inf )
( -inf , inf )

  end
  begin
    id 31
    name head
    direction 0 0 0
    length 0
    axis 0 0 0 xyz
    dof rx ry rz
    limits( -inf , inf )
( -inf , inf )
( -inf , inf )

  end
:hierarchy
  begin
    root lfemurDummy rfemurDummy lowerbackDummy
    lfemurDummy lfemur
    lfemur ltibia
    ltibia lfoot
    lfoot ltoes
    rfemurDummy rfemur
    rfemur rtibia
    rtibia rfoot
    rfoot rtoes
    lowerbackDummy lowerback
    lowerback upperback
    upperback thorax
    thorax rclavicle lclavicle lowerneck
    rclavicle rhumerus
    rhumerus rradius
    rradius rwrist
    rwrist rthumb rhand
    rhand rfingers
    lclavicle lhumerus
    lhumerus lradius
    lradius lwrist
    lwrist lthumb lhand
    lhand lfingers
    lowerneck upperneck
    upperneck head
  end

:SAMPLES-PER-SECOND 30
:FULLY-SPECIFIED
:DEGREES
131
root  5.999288784 38.14533264 2.244333395 -165.3370056 -67.92299652 159.276001
lowerback  15.5656004 2.29982996 -4.075960159
upperback  4.848690033 2.02677989 -1.145679951
thorax  -3.672450066 0.8648639917 0.7320719957
lowerneck  -4.805679798 10.23639965 -0.2280229926
upperneck  7.794980049 14.08500004 -4.676980019
head  3.74138999 6.749780178 -0.8019909859
lclavicle  0 -9.442270133e-015 7.951389973e-016
lhumerus  -39.18999863 -5.177000046 81.93650055
lradius  2.830212219e-031 -2.111573544e-031 143.2740021
lwrist  -7.062250077e-031 -0 20.49720001
lhand  -1.496451383e-031 -27.76390076 20.11240005
lfingers  90 7.125020027 -90
lthumb  89.89689403 5.08795885 91.16245106
rclavicle  0 -9.442270133e-015 7.951389973e-016
rhumerus  -29.21780014 7.553609848 -67.2009964
rradius  -4.682842266e-032 3.499936274e-031 97.6207962
rwrist  1.412450015e-030 1.103476575e-031 -32.76269913
rhand  -7.920061211e-032 -33.2840004 9.303460121
rfingers  -90 -7.125020027 -90
rthumb  -92.93752616 -24.25625642 -97.11982154
rfemur  -13.85439968 17.75939941 -5.69137001
rtibia  -0 0 57.37590027
rfoot  -4.63914425e-032 -17.92720032 -0.9190319777
rtoes  5.373923086 19.29304026 -105.8922705
lfemur  -18.13839912 2.3166399 -0.1455409974
ltibia  -0 0 41.40890121
lfoot  -0 -1.650439978 13.68560028
ltoes  -4.250644065 -19.5611806 -102.515957
132
root  5.722422112 37.95400004 2.470266725 -167.0759888 -68.39600372 160.7269897
lowerback  15.93799973 2.066989899 -3.192670107
upperback  4.762169838 1.823690057 -1.381690025
thorax  -3.920730114 0.7683920264 0.01338389982
lowerneck  -4.927529812 10.30860043 -0.1566340029
upperneck  8.023799896 14.16989994 -4.453589916
head  3.833359957 6.794000149 -0.7239789963
lclavicle  0 -9.442270133e-015 7.951389973e-016
lhumerus  -42.55009842 -3.586770058 82.02760315
lradius  2.819005625e-031 -2.126511539e-031 142.970993
lwrist  -1.412450015e-030 -0 21.95179939
lhand  -1.496451383e-031 -27.76390076 20.11240005
lfingers  90 7.125020027 -90
lthumb  89.89689403 5.08795885 91.16245106
rclavicle  0 -9.442270133e-015 7.951389973e-016
rhumerus  -31.38249969 8.044309616 -67.65570068
rradius  -3.24263433e-032 3.516204952e-031 95.26889801
rwrist  1.412450015e-030 8.827812596e-032 -33.11370087
rhand  -7.920061211e-032 -33.2840004 9.303460121
rfingers  -90 -7.125020027 -90
rthumb  -92.93752616 -24.25625642 -97.11982154
rfemur  -11.95349979 17.72940063 -5.221310139
rtibia  -0 0 55.96870041
rfoot  -4.680995827e-032 -19.4484005 -1.188529968
rtoes  5.373923086 19.29304026 -105.8922705
lfemur  -17.26210022 0.2670939863 1.249559999
ltibia  -0 0 39.76689911
lfoot  -0 -1.135810018 14.81410027
ltoes  -4.250644065 -19.5611806 -102.515957
133
root  5.443689016 37.75333194 2.664822293 -169.1789856 -68.08200073 162.7479858
lowerback  15.95779991 2.155689955 -2.805999994
upperback  4.640960217 1.995210052 -1.52512002
thorax  -4.045589924 0.8566200137 -0.3913330138
lowerneck  -5.013969898 10.36989975 -0.01045310032
upperneck  8.238300323 14.23560047 -4.271510124
head  3.923510075 6.830619812 -0.6737589836
lclavicle  0 -9.442270133e-015 7.951389973e-016
lhumerus  -45.77519989 -1.684610009 81.58049774
lradius  2.812721331e-031 -2.134816796e-031 142.802002
lwrist  -7.062250077e-031 -0 23.25600052
lhand  -1.496451383e-031 -27.76390076 20.11240005
lfingers  90 7.125020027 -90
lthumb  89.89689403 5.08795885 91.16245106
rclavicle  0 -9.442270133e-015 7.951389973e-016
rhumerus  -33.55319977 8.847570419 -68.20210266
rradius  -1.888850995e-032 3.526069548e-031 93.06629944
rwrist  7.062250077e-031 1.765562519e-031 -33.38679886
rhand  -7.920061211e-032 -33.2840004 9.303460121
rfingers  -90 -7.125020027 -90
rthumb  -92.93752616 -24.25625642 -97.11982154
rfemur  -10.77140045 18.18470001 -4.819839954
rtibia  -0 0 54.65660095
rfoot  -5.906808193e-032 -20.92130089 -1.404590011
rtoes  5.373923086 19.29304026 -105.8922705
lfemur  -16.20859909 -0.9971479774 2.662750006
ltibia  -0 0 38.45460129
lfoot  -0 -0.658182025 16.01889992
ltoes  -4.250644065 -19.5611806 -102.515957
134
root  5.174089041 37.54444573 2.851933382 -172.1369934 -67.29299927 165.7059937
lowerback  16.02359962 2.440330029 -2.306190014
upperback  4.457119942 2.44727993 -1.597489953
thorax  -4.257619858 1.08355999 -0.8433650136
lowerneck  -4.981140137 10.40450001 0.1980960071
upperneck  8.353010178 14.25059986 -4.066770077
head  3.957299948 6.850949764 -0.6387910247
lclavicle  0 -9.442270133e-015 7.951389973e-016
lhumerus  -48.81259918 0.1834660023 80.28639984
lradius  2.808244198e-031 -2.14070282e-031 142.6820068
lwrist  0 8.827812596e-032 24.3314991
lhand  -1.496451383e-031 -27.76390076 20.11240005
lfingers  90 7.125020027 -90
lthumb  89.89689403 5.08795885 91.16245106
rclavicle  0 -9.442270133e-015 7.951389973e-016
rhumerus  -35.78929901 9.686090469 -68.86969757
rradius  -6.494193114e-033 3.530527805e-031 91.05380249
rwrist  7.062250077e-031 1.324171889e-031 -33.6072998
rhand  -7.920061211e-032 -33.2840004 9.303460121
rfingers  -90 -7.125020027 -90
rthumb  -92.93752616 -24.25625642 -97.11982154
rfemur  -10.03759956 18.95859909 -4.160520077
rtibia  -0 0 53.50030136
rfoot  -4.761182764e-032 -22.01880074 -1.669389963
rtoes  5.373923086 19.29304026 -105.8922705
lfemur  -15.0163002 -1.673020005 4.35763979
ltibia  -0 0 37.53540039
lfoot  -0 0.4396730065 16.94059944
ltoes  -4.250644065 -19.5611806 -102.515957
135
root  4.906577764 37.35022357 3.074644494 -174.9140015 -66.28700256 168.5809937
lowerback  16.08519936 2.776030064 -1.656190038
upperback  4.22205019 2.992049932 -1.713950038
thorax  -4.501080036 1.354249954 -1.448040009
lowerneck  -4.918499947 10.3980999 0.4519180059
upperneck  8.415340424 14.20489979 -3.870549917
head  3.969860077 6.844669819 -0.6203479767
lclavicle  0 -9.442270133e-015 7.951389973e-016
lhumerus  -51.51850128 2.087949991 77.98130035
lradius  2.802929623e-031 -2.147656762e-031 142.5399933
lwrist  -1.412450015e-030 2.648343779e-031 25.25860023
lhand  -1.496451383e-031 -27.76390076 20.11240005
lfingers  90 7.125020027 -90
lthumb  89.89689403 5.08795885 91.16245106
rclavicle  0 -9.442270133e-015 7.951389973e-016
rhumerus  -37.97340012 10.44169998 -69.5746994
rradius  4.979511136e-033 3.530773921e-031 89.19200134
rwrist  7.062250077e-031 4.413906298e-032 -33.99900055
rhand  -7.920061211e-032 -33.2840004 9.303460121
rfingers  -90 -7.125020027 -90
rthumb  -92.93752616 -24.25625642 -97.11982154
rfemur  -9.654359818 20.03560066 -3.761699915
rtibia  -0 0 52.55720139
rfoot  -5.390796317e-032 -22.9076004 -0.5107489824
rtoes  5.373923086 19.29304026 -105.8922705
lfemur  -13.86830044 -2.245769978 5.914899826
ltibia  -0 0 37.00579834
lfoot  -0 1.923599958 17.06629944
ltoes  -4.250644065 -19.5611806 -102.515957
136
root  4.624088918 37.16666755 3.34844439 -175.6749878 -65.12000275 169.447998
lowerback  16.00530052 3.155770063 -1.599609971
upperback  3.923650026 3.487750053 -2.066699982
thorax  -4.742640018 1.601179957 -1.955899954
lowerneck  -4.911439896 10.40340042 0.671743989
upperneck  8.582409859 14.16959953 -3.536339998
head  4.01526022 6.845359802 -0.5457980037
lclavicle  0 -9.442270133e-015 7.951389973e-016
lhumerus  -53.89020157 4.176990032 74.68509674
lradius  2.797974774e-031 -2.154107983e-031 142.4080048
lwrist  -1.412450015e-030 1.765562519e-031 26.12649918
lhand  -1.496451383e-031 -27.76390076 20.11240005
lfingers  90 7.125020027 -90
lthumb  89.89689403 5.08795885 91.16245106
rclavicle  0 -9.442270133e-015 7.951389973e-016
rhumerus  -40.04119873 11.20759964 -70.28759766
rradius  1.57713435e-032 3.52760124e-031 87.44010162
rwrist  0 -4.413906298e-032 -34.4314003
rhand  -7.920061211e-032 -33.2840004 9.303460121
rfingers  -90 -7.125020027 -90
rthumb  -92.93752616 -24.25625642 -97.11982154
rfemur  -9.743579865 20.43429947 -4.403329849
rtibia  -0 0 51.93519974
rfoot  -4.811590755e-032 -23.45849991 -0.446615994
rtoes  5.373923086 19.29304026 -105.8922705
lfemur  -12.85239983 -2.821229935 6.381999969
ltibia  -0 0 36.84199905
lfoot  -0 2.495480061 17.49909973
ltoes  -4.250644065 -19.5611806 -102.515957
137
root  4.336600041 36.98844309 3.62259985 -175.7929993 -63.91200256 169.5690002
lowerback  15.88920021 3.540110111 -1.945530057
upperback  3.627300024 3.916209936 -2.461740017
thorax  -4.981019974 1.815109968 -2.269079924
lowerneck  -4.783360004 10.42759991 0.8854960203
upperneck  8.670229912 14.1559 -3.21848011
head  4.010630131 6.85958004 -0.4840309918
lclavicle  0 -9.442270133e-015 7.951389973e-016
lhumerus  -56.01070023 6.362750053 70.46779633
lradius  2.791193348e-031 -2.162887822e-031 142.2279968
lwrist  0 1.544867204e-031 26.97570038
lhand  -1.496451383e-031 -27.76390076 20.11240005
lfingers  90 7.125020027 -90
lthumb  89.89689403 5.08795885 91.16245106
rclavicle  0 -9.442270133e-015 7.951389973e-016
rhumerus  -41.97790146 12.14089966 -71.12729645
rradius  2.625406821e-032 3.521351506e-031 85.73609924
rwrist  1.412450015e-030 3.972515668e-031 -34.92649841
rhand  -7.920061211e-032 -33.2840004 9.303460121
rfingers  -90 -7.125020027 -90
rthumb  -92.93752616 -24.25625642 -97.11982154
rfemur  -10.0625 20.49550056 -5.300779819
rtibia  -0 0 51.62440109
rfoot  -4.824384233e-032 -23.80620003 -1.230069995
rtoes  5.373923086 19.29304026 -105.8922705
lfemur  -11.85849953 -3.103669882 6.391109943
ltibia  -0 0 37.0727005
lfoot  -0 2.186039925 18.41209984
ltoes  -4.250644065 -19.5611806 -102.515957
